<?xml version="1.0" encoding="UTF-8" standalone="no"?>
<!DOCTYPE svg PUBLIC "-//W3C//DTD SVG 1.1//EN" "http://www.w3.org/Graphics/SVG/1.1/DTD/svg11.dtd">
<svg width="100%" height="100%" viewBox="0 0 512 512" version="1.1" xmlns="http://www.w3.org/2000/svg" xmlns:xlink="http://www.w3.org/1999/xlink" xml:space="preserve" xmlns:serif="http://www.serif.com/" style="fill-rule:evenodd;clip-rule:evenodd;stroke-linecap:round;stroke-linejoin:round;stroke-miterlimit:1.5;">
    <g transform="matrix(1,0,0,1,0,-270)">
        <g id="Doslownie" transform="matrix(1,0,0,1,593,51)">
            <rect x="-593" y="219" width="512" height="512" style="fill:none;"/>
            <g transform="matrix(1,0,0,1,-593,219)">
                <rect x="0" y="0" width="512" height="512" style="fill:url(#_Linear1);"/>
            </g>
            <g transform="matrix(1,0,0,1,-593,-51)">
                <path d="M512,421.835L257.188,584.601L512,528.433L512,640.769L257.188,584.601L512,747.366L512,782L383.281,782L257.188,584.601L300.701,782L213.676,782L257.188,584.601L131.096,782L0,782L0,748.884L257.188,584.601L0,641.292L0,527.909L257.188,584.601L0,420.317L0,270L53.06,270C53.929,270.795 54.782,271.611 55.621,272.45C59.624,276.453 63.18,280.878 66.227,285.648L257.188,584.601L187.841,270L326.536,270L257.188,584.601L448.149,285.648C451.196,280.878 454.753,276.453 458.755,272.45C459.594,271.611 460.448,270.795 461.317,270L512,270L512,421.835Z" style="fill:rgb(254,239,254);fill-opacity:0.1;"/>
            </g>
            <g transform="matrix(0.849237,0,0,0.849237,127.335,37.8805)">
                <g id="path3916" transform="matrix(0.825837,0,0,0.825837,-127.226,29.349)">
                    <path d="M-507.918,706.166L-710.593,686.382L-811.524,843.52L-811.516,839.509L-817.998,843.236L-817.998,853.616L-546.538,832.319L-546.528,832.292L-546.528,832.321C-546.528,832.321 -536.216,845.685 -508.006,845.685C-508.006,845.685 -485.449,845.706 -469.494,832.33L-469.491,832.338L-198.03,853.635L-198.03,843.255L-204.195,840.022L-305.438,686.401L-507.918,706.166Z" style="fill:rgb(48,48,74);fill-rule:nonzero;"/>
                </g>
                <g id="path3976" transform="matrix(0.825837,0,0,0.825837,-127.236,26.0246)">
                    <path d="M-507.999,699.798L-710.584,680.025L-817.996,847.259L-817.988,847.259L-546.528,825.96L-546.526,825.953C-546.347,826.182 -535.971,839.316 -508.006,839.316C-508.006,839.316 -485.449,839.337 -469.492,825.957L-469.491,825.962L-198.03,847.262L-305.438,680.028L-507.999,699.798Z" style="fill:rgb(76,78,116);fill-rule:nonzero;"/>
                </g>
                <g id="path4216" transform="matrix(1,0,0,1,-802.767,282.599)">
                    <path d="M255.937,295.954C257.796,294.847 296.465,272.25 355.597,272.25C372.435,272.25 390.934,274.083 410.713,278.767L484.68,383.727L256.005,409.178L255.937,353.139L255.868,409.178L27.193,383.727L101.16,278.767C120.94,274.083 139.438,272.25 156.276,272.25C215.408,272.25 254.077,294.847 255.937,295.954Z" style="fill:rgb(201,201,201);fill-rule:nonzero;"/>
                </g>
                <g id="path4228" transform="matrix(1,0,0,1,-802.767,282.599)">
                    <path d="M256.066,409.186C256.066,409.186 320.166,342.256 475.141,370.191L410.713,278.767C409.802,278.529 407.106,277.781 406.037,277.707C375.659,275.594 285.432,339.023 256.066,409.186Z" style="fill:url(#_Linear2);fill-rule:nonzero;"/>
                </g>
                <g id="path42281" serif:id="path4228" transform="matrix(1,0,0,1,-802.767,282.599)">
                    <path d="M255.924,409.186C255.924,409.186 191.708,342.256 36.732,370.191L101.16,278.767C102.071,278.529 104.767,277.781 105.836,277.707C136.214,275.594 226.558,339.023 255.924,409.186Z" style="fill:url(#_Linear3);fill-rule:nonzero;"/>
                </g>
                <g id="path4248" transform="matrix(0.825837,0,0,0.825837,-191.829,-154.85)">
                    <path d="M-429.786,1038.72L-429.789,1038.72C-588.408,1012.44 -702.615,1042.8 -702.615,1042.8C-698.538,1003.37 -706.69,994.313 -706.69,994.313C-671.32,985.938 -638.246,982.661 -608.135,982.664C-499.998,982.664 -430.122,1024.93 -429.788,1025.13C-429.453,1024.93 -359.577,982.664 -251.44,982.664C-221.329,982.661 -188.255,985.938 -152.885,994.313C-152.885,994.313 -161.037,1003.37 -156.96,1042.8C-156.96,1042.8 -271.167,1012.44 -429.786,1038.72Z" style="fill:white;fill-rule:nonzero;"/>
                </g>
                <g id="path4342" transform="matrix(0.825837,0,0,0.774804,-764.64,178.357)">
                    <path d="M263.815,525.636C265.226,521.614 284.636,448.547 406.461,427.734L472.119,554.83C472.119,554.83 356.665,543.638 263.901,662.657L263.729,662.657C170.965,543.638 55.512,554.83 55.512,554.83L121.17,427.734C242.995,448.547 262.405,521.614 263.815,525.636Z" style="fill:white;fill-rule:nonzero;"/>
                </g>
            </g>
            <g>
                <g transform="matrix(1,0,0,1,-603,229)">
                    <path d="M279.712,315.673C279.712,315.673 296.232,269.177 334.006,226.082C354.795,202.363 382.127,179.735 416.92,166.884C422.037,164.816 424.512,158.982 422.444,153.865C420.376,148.748 414.542,146.273 409.425,148.341C372.691,164.499 344.48,190.51 323.58,217.487C287.218,264.422 273.024,313.528 273.024,313.528C272.432,315.373 273.449,317.352 275.295,317.944C277.14,318.537 279.119,317.519 279.712,315.673Z" style="fill:rgb(241,205,70);"/>
                </g>
                <g transform="matrix(0.283077,0,0,0.734548,-415.238,305.355)">
                    <path d="M283.451,314.627C283.451,314.627 288.603,264.63 337.991,217.244C358.774,197.304 387.548,177.861 427.569,163.058C435.368,159.996 435.249,155.07 427.303,152.064C419.358,149.059 406.575,149.105 398.776,152.167C357.72,169.278 329.203,191.053 309.949,213.274C266.767,263.111 269.284,314.574 269.284,314.574C269.246,316.081 272.389,317.316 276.299,317.33C280.208,317.345 283.413,316.134 283.451,314.627Z" style="fill:rgb(241,205,70);"/>
                </g>
                <g transform="matrix(-1,0,0,1,-71.2639,229)">
                    <path d="M272.366,312.994C272.366,312.994 299.058,240.333 353.63,182.43C377.27,157.346 406.139,135.258 440.076,122.327C446.482,120.114 453.48,123.519 455.693,129.925C457.906,136.332 454.501,143.329 448.095,145.542C408.22,157.926 375.104,184.473 349.132,212.837C304.239,261.865 280.37,316.208 280.37,316.208C279.483,318.416 276.969,319.489 274.761,318.603C272.552,317.716 271.479,315.202 272.366,312.994Z" style="fill:rgb(241,205,70);"/>
                </g>
                <g transform="matrix(0.815201,0,0,0.815201,-556.929,226.722)">
                    <path d="M227.566,186.854C227.975,185.785 229.001,185.08 230.146,185.08C231.291,185.08 232.317,185.785 232.726,186.854C232.726,186.854 235.926,202.989 240.76,207.822C245.594,212.656 261.728,215.856 261.728,215.856C262.797,216.265 263.503,217.292 263.503,218.436C263.503,219.581 262.797,220.607 261.728,221.017C261.728,221.017 245.594,224.217 240.76,229.05C235.926,233.884 232.726,250.018 232.726,250.018C232.317,251.087 231.291,251.793 230.146,251.793C229.001,251.793 227.975,251.087 227.566,250.018C227.566,250.018 224.366,233.884 219.532,229.05C214.698,224.217 198.564,221.017 198.564,221.017C197.495,220.607 196.789,219.581 196.789,218.436C196.789,217.292 197.495,216.265 198.564,215.856C198.564,215.856 214.698,212.656 219.532,207.822C224.366,202.989 227.566,186.854 227.566,186.854Z" style="fill:rgb(241,205,70);"/>
                </g>
            </g>
            <g transform="matrix(1.00237,0.192475,-0.192475,1.00237,82.3321,121.726)">
                <g transform="matrix(1.329,0,0,1.329,-623.711,165.536)">
                    <path d="M144.522,147.413C144.522,143.388 141.254,140.12 137.229,140.12L103.196,140.12C99.171,140.12 95.903,143.388 95.903,147.413L95.903,181.446C95.903,185.471 99.171,188.739 103.196,188.739L137.229,188.739C141.254,188.739 144.522,185.471 144.522,181.446L144.522,147.413Z" style="fill:rgb(29,29,29);"/>
                </g>
                <g transform="matrix(1.329,0,0,1.329,-623.711,159.851)">
                    <path d="M144.522,147.413C144.522,143.388 141.254,140.12 137.229,140.12L103.196,140.12C99.171,140.12 95.903,143.388 95.903,147.413L95.903,181.446C95.903,185.471 99.171,188.739 103.196,188.739L137.229,188.739C141.254,188.739 144.522,185.471 144.522,181.446L144.522,147.413Z" style="fill:rgb(47,47,47);"/>
                </g>
                <g transform="matrix(1,0,0,1,-592.243,231.514)">
                    <path d="M122.939,159.228L121.158,164.149L112.064,163.634L124.299,130.493L133.885,129.579L144.525,163.235L135.432,164.032L133.486,157.798L122.939,159.228ZM131.283,150.743L128.822,142.915L125.705,151.563L131.283,150.743Z" style="fill:rgb(240,240,240);fill-rule:nonzero;"/>
                </g>
            </g>
            <g transform="matrix(0.967358,0.671572,-0.671572,0.967358,498.343,283.038)">
                <g transform="matrix(1.329,0,0,1.329,-623.711,165.536)">
                    <path d="M144.522,147.413C144.522,143.388 141.254,140.12 137.229,140.12L103.196,140.12C99.171,140.12 95.903,143.388 95.903,147.413L95.903,181.446C95.903,185.471 99.171,188.739 103.196,188.739L137.229,188.739C141.254,188.739 144.522,185.471 144.522,181.446L144.522,147.413Z" style="fill:rgb(29,29,29);"/>
                </g>
                <g transform="matrix(1.329,0,0,1.329,-623.711,159.851)">
                    <path d="M144.522,147.413C144.522,143.388 141.254,140.12 137.229,140.12L103.196,140.12C99.171,140.12 95.903,143.388 95.903,147.413L95.903,181.446C95.903,185.471 99.171,188.739 103.196,188.739L137.229,188.739C141.254,188.739 144.522,185.471 144.522,181.446L144.522,147.413Z" style="fill:rgb(47,47,47);"/>
                </g>
                <g transform="matrix(1,0,0,1,-592.243,231.514)">
                    <path d="M120.631,141.087L121.1,163.634L112.709,163.845L112.404,130.188L123.022,129.884L136.404,153.438L136.568,129.181L145.147,128.876L144.162,164.032L133.334,164.032L120.631,141.087Z" style="fill:rgb(240,240,240);fill-rule:nonzero;"/>
                </g>
            </g>
            <g transform="matrix(1.46947,-0.574396,0.574396,1.46947,114.939,-497.24)">
                <g transform="matrix(1.329,0,0,1.329,-623.711,165.536)">
                    <path d="M144.522,147.413C144.522,143.388 141.254,140.12 137.229,140.12L103.196,140.12C99.171,140.12 95.903,143.388 95.903,147.413L95.903,181.446C95.903,185.471 99.171,188.739 103.196,188.739L137.229,188.739C141.254,188.739 144.522,185.471 144.522,181.446L144.522,147.413Z" style="fill:rgb(29,29,29);"/>
                </g>
                <g transform="matrix(1.329,0,0,1.329,-623.711,159.851)">
                    <path d="M144.522,147.413C144.522,143.388 141.254,140.12 137.229,140.12L103.196,140.12C99.171,140.12 95.903,143.388 95.903,147.413L95.903,181.446C95.903,185.471 99.171,188.739 103.196,188.739L137.229,188.739C141.254,188.739 144.522,185.471 144.522,181.446L144.522,147.413Z" style="fill:rgb(47,47,47);"/>
                </g>
                <g transform="matrix(1,0,0,1,-592.243,231.514)">
                    <path d="M127.416,129.298C137.791,128.892 143.182,134.681 143.588,146.665C143.338,158.118 138.096,163.728 127.861,163.493L114.361,163.212L113.963,129.673L127.416,129.298ZM128.143,155.548C133.205,155.423 135.557,152.563 135.197,146.97C134.932,141.048 132.338,137.938 127.416,137.642L122.752,137.853L122.658,155.853L128.143,155.548Z" style="fill:rgb(240,240,240);fill-rule:nonzero;"/>
                </g>
            </g>
            <g transform="matrix(0.73423,0.301937,-0.301937,0.73423,186.404,321.053)">
                <g transform="matrix(1.329,0,0,1.329,-623.711,165.536)">
                    <path d="M144.522,147.413C144.522,143.388 141.254,140.12 137.229,140.12L103.196,140.12C99.171,140.12 95.903,143.388 95.903,147.413L95.903,181.446C95.903,185.471 99.171,188.739 103.196,188.739L137.229,188.739C141.254,188.739 144.522,185.471 144.522,181.446L144.522,147.413Z" style="fill:rgb(29,29,29);"/>
                </g>
                <g transform="matrix(1.329,0,0,1.329,-623.711,159.851)">
                    <path d="M144.522,147.413C144.522,143.388 141.254,140.12 137.229,140.12L103.196,140.12C99.171,140.12 95.903,143.388 95.903,147.413L95.903,181.446C95.903,185.471 99.171,188.739 103.196,188.739L137.229,188.739C141.254,188.739 144.522,185.471 144.522,181.446L144.522,147.413Z" style="fill:rgb(47,47,47);"/>
                </g>
                <g transform="matrix(1,5.55112e-17,-5.55112e-17,1,-592.867,231.305)">
                    <path d="M116.072,140.595C116.385,133.267 120.322,129.47 127.885,129.204C137.307,128.907 141.986,133.095 141.924,141.767L133.533,141.251C133.658,138.017 132.018,136.532 128.611,136.798C126.127,136.985 124.725,137.806 124.404,139.259C124.084,140.712 124.768,141.911 126.455,142.856C128.143,143.802 130.986,144.813 134.986,145.892C139.064,147.454 141.291,150.11 141.666,153.86C140.979,161.032 137.088,164.759 129.994,165.04C120.572,165.337 115.893,161.149 115.955,152.478L123.736,152.993C124.143,156.103 125.994,157.688 129.291,157.751C131.557,157.501 132.908,156.673 133.346,155.267C133.955,153.782 132.604,152.556 129.291,151.587C120.385,149.462 115.979,145.798 116.072,140.595Z" style="fill:rgb(240,240,240);fill-rule:nonzero;"/>
                </g>
            </g>
            <g transform="matrix(0.550025,-0.417312,0.417312,0.550025,-270.658,80.1061)">
                <g transform="matrix(1.329,0,0,1.329,-623.711,165.536)">
                    <path d="M144.522,147.413C144.522,143.388 141.254,140.12 137.229,140.12L103.196,140.12C99.171,140.12 95.903,143.388 95.903,147.413L95.903,181.446C95.903,185.471 99.171,188.739 103.196,188.739L137.229,188.739C141.254,188.739 144.522,185.471 144.522,181.446L144.522,147.413Z" style="fill:rgb(29,29,29);"/>
                </g>
                <g transform="matrix(1.329,0,0,1.329,-623.711,159.851)">
                    <path d="M144.522,147.413C144.522,143.388 141.254,140.12 137.229,140.12L103.196,140.12C99.171,140.12 95.903,143.388 95.903,147.413L95.903,181.446C95.903,185.471 99.171,188.739 103.196,188.739L137.229,188.739C141.254,188.739 144.522,185.471 144.522,181.446L144.522,147.413Z" style="fill:rgb(47,47,47);"/>
                </g>
                <g transform="matrix(1,5.55112e-17,-5.55112e-17,1,-592.867,231.305)">
                    <path d="M130.627,137.688L124.557,137.923L124.557,143.243L130.463,143.876C132.494,143.642 133.588,142.681 133.744,140.993C133.932,138.743 132.893,137.642 130.627,137.688ZM128.002,151.329L124.557,151.235L124.275,164.009L115.908,164.431L116.33,129.462L130.557,129.579C137.932,129.688 141.689,133.188 141.83,140.079C141.705,145.079 139.822,148.423 136.182,150.11C138.135,153.438 140.08,158.212 142.018,164.431L133.229,164.946C131.432,158.29 129.689,153.751 128.002,151.329Z" style="fill:rgb(240,240,240);fill-rule:nonzero;"/>
                </g>
            </g>
            <g>
                <g transform="matrix(0.573659,0,0,0.573659,-666.51,330.557)">
                    <path d="M227.566,186.854C227.975,185.785 229.001,185.08 230.146,185.08C231.291,185.08 232.317,185.785 232.726,186.854C232.726,186.854 235.926,202.989 240.76,207.822C245.594,212.656 261.728,215.856 261.728,215.856C262.797,216.265 263.503,217.292 263.503,218.436C263.503,219.581 262.797,220.607 261.728,221.017C261.728,221.017 245.594,224.217 240.76,229.05C235.926,233.884 232.726,250.018 232.726,250.018C232.317,251.087 231.291,251.793 230.146,251.793C229.001,251.793 227.975,251.087 227.566,250.018C227.566,250.018 224.366,233.884 219.532,229.05C214.698,224.217 198.564,221.017 198.564,221.017C197.495,220.607 196.789,219.581 196.789,218.436C196.789,217.292 197.495,216.265 198.564,215.856C198.564,215.856 214.698,212.656 219.532,207.822C224.366,202.989 227.566,186.854 227.566,186.854Z" style="fill:rgb(241,205,70);"/>
                </g>
                <g transform="matrix(1,0,0,1,-467.25,166.485)">
                    <path d="M332.252,217.624C332.252,215.375 330.426,213.549 328.177,213.549C325.928,213.549 324.102,215.375 324.102,217.624L324.102,227.734C324.102,229.983 325.928,231.809 328.177,231.809C330.426,231.809 332.252,229.983 332.252,227.734L332.252,217.624ZM347.61,212.376C349.859,212.376 351.685,210.55 351.685,208.301C351.685,206.052 349.859,204.226 347.61,204.226L337.5,204.226C335.251,204.226 333.425,206.052 333.425,208.301C333.425,210.55 335.251,212.376 337.5,212.376L347.61,212.376ZM318.854,212.376C321.103,212.376 322.929,210.55 322.929,208.301C322.929,206.052 321.103,204.226 318.854,204.226L308.744,204.226C306.495,204.226 304.669,206.052 304.669,208.301C304.669,210.55 306.495,212.376 308.744,212.376L318.854,212.376ZM332.252,188.868C332.252,186.619 330.426,184.793 328.177,184.793C325.928,184.793 324.102,186.619 324.102,188.868L324.102,198.978C324.102,201.227 325.928,203.053 328.177,203.053C330.426,203.053 332.252,201.227 332.252,198.978L332.252,188.868Z" style="fill:rgb(241,205,70);"/>
                </g>
                <g transform="matrix(0.734207,0,0,0.734207,-516.44,241.89)">
                    <path d="M332.252,217.624C332.252,215.375 330.426,213.549 328.177,213.549C325.928,213.549 324.102,215.375 324.102,217.624L324.102,227.734C324.102,229.983 325.928,231.809 328.177,231.809C330.426,231.809 332.252,229.983 332.252,227.734L332.252,217.624ZM347.61,212.376C349.859,212.376 351.685,210.55 351.685,208.301C351.685,206.052 349.859,204.226 347.61,204.226L337.5,204.226C335.251,204.226 333.425,206.052 333.425,208.301C333.425,210.55 335.251,212.376 337.5,212.376L347.61,212.376ZM318.854,212.376C321.103,212.376 322.929,210.55 322.929,208.301C322.929,206.052 321.103,204.226 318.854,204.226L308.744,204.226C306.495,204.226 304.669,206.052 304.669,208.301C304.669,210.55 306.495,212.376 308.744,212.376L318.854,212.376ZM332.252,188.868C332.252,186.619 330.426,184.793 328.177,184.793C325.928,184.793 324.102,186.619 324.102,188.868L324.102,198.978C324.102,201.227 325.928,203.053 328.177,203.053C330.426,203.053 332.252,201.227 332.252,198.978L332.252,188.868Z" style="fill:rgb(241,205,70);stroke:rgb(241,205,70);stroke-width:1.36px;"/>
                </g>
                <g transform="matrix(1.28098,0,0,1.28098,-573.319,6.90314)">
                    <path d="M227.566,186.854C227.975,185.785 229.001,185.08 230.146,185.08C231.291,185.08 232.317,185.785 232.726,186.854C232.726,186.854 235.926,202.989 240.76,207.822C245.594,212.656 261.728,215.856 261.728,215.856C262.797,216.265 263.503,217.292 263.503,218.436C263.503,219.581 262.797,220.607 261.728,221.017C261.728,221.017 245.594,224.217 240.76,229.05C235.926,233.884 232.726,250.018 232.726,250.018C232.317,251.087 231.291,251.793 230.146,251.793C229.001,251.793 227.975,251.087 227.566,250.018C227.566,250.018 224.366,233.884 219.532,229.05C214.698,224.217 198.564,221.017 198.564,221.017C197.495,220.607 196.789,219.581 196.789,218.436C196.789,217.292 197.495,216.265 198.564,215.856C198.564,215.856 214.698,212.656 219.532,207.822C224.366,202.989 227.566,186.854 227.566,186.854Z" style="fill:rgb(241,205,70);"/>
                </g>
                <g transform="matrix(1.37961,0,0,1.37961,-920.545,1.64017)">
                    <path d="M332.252,217.624C332.252,215.375 330.426,213.549 328.177,213.549C325.928,213.549 324.102,215.375 324.102,217.624L324.102,227.734C324.102,229.983 325.928,231.809 328.177,231.809C330.426,231.809 332.252,229.983 332.252,227.734L332.252,217.624ZM347.61,212.376C349.859,212.376 351.685,210.55 351.685,208.301C351.685,206.052 349.859,204.226 347.61,204.226L337.5,204.226C335.251,204.226 333.425,206.052 333.425,208.301C333.425,210.55 335.251,212.376 337.5,212.376L347.61,212.376ZM318.854,212.376C321.103,212.376 322.929,210.55 322.929,208.301C322.929,206.052 321.103,204.226 318.854,204.226L308.744,204.226C306.495,204.226 304.669,206.052 304.669,208.301C304.669,210.55 306.495,212.376 308.744,212.376L318.854,212.376ZM332.252,188.868C332.252,186.619 330.426,184.793 328.177,184.793C325.928,184.793 324.102,186.619 324.102,188.868L324.102,198.978C324.102,201.227 325.928,203.053 328.177,203.053C330.426,203.053 332.252,201.227 332.252,198.978L332.252,188.868Z" style="fill:rgb(241,205,70);"/>
                </g>
            </g>
        </g>
    </g>
    <defs>
        <linearGradient id="_Linear1" x1="0" y1="0" x2="1" y2="0" gradientUnits="userSpaceOnUse" gradientTransform="matrix(200.034,-485.891,485.891,200.034,109.906,588.596)"><stop offset="0" style="stop-color:rgb(136,103,223);stop-opacity:1"/><stop offset="1" style="stop-color:rgb(219,81,124);stop-opacity:1"/></linearGradient>
        <linearGradient id="_Linear2" x1="0" y1="0" x2="1" y2="0" gradientUnits="userSpaceOnUse" gradientTransform="matrix(178.258,-96.1839,96.1839,178.258,256.004,408.366)"><stop offset="0" style="stop-color:rgb(161,164,177);stop-opacity:1"/><stop offset="1" style="stop-color:rgb(161,164,177);stop-opacity:0"/></linearGradient>
            <linearGradient id="_Linear3" x1="0" y1="0" x2="1" y2="0" gradientUnits="userSpaceOnUse" gradientTransform="matrix(-183.772,-89.4582,89.4582,-183.772,256.066,409.186)"><stop offset="0" style="stop-color:rgb(161,164,177);stop-opacity:1"/><stop offset="1" style="stop-color:rgb(161,164,177);stop-opacity:0"/></linearGradient>
    </defs>
</svg>
